<?xml version="1.0" encoding="UTF-8"?>
<svg width="175px" height="324px" viewBox="0 0 175 234" version="1.1" xmlns="http://www.w3.org/2000/svg" xmlns:xlink="http://www.w3.org/1999/xlink">
    <!-- Generator: Sketch 41.2 (35397) - http://www.bohemiancoding.com/sketch -->
    <title>Eli1957_CS</title>
    <desc>Created with Sketch.</desc>
    <defs></defs>
    <g id="Page-1" stroke="none" stroke-width="1" fill="none" fill-rule="evenodd">
        <g id="Eli1957_CS" fill="#D9222A">
            <g id="Group-3">
                <path d="M130.793,93.339 C140.219,79.528 146.333,83.449 141.765,95.206 C135.946,110.246 123.456,130.685 108.368,151.492 C106.552,154 104.433,156.733 102.09,159.595 C106.333,140.104 114.75,116.794 130.793,93.339 Z M166.634,214.239 C163.764,220.291 155,229.213 151.727,217.551 C148.425,205.896 159.889,176.666 163.974,168.525 C167.317,161.855 158.883,161.384 154.108,162.247 C149.651,163.059 147.942,166.963 145.431,173.61 C125.064,227.466 98.618,230.658 98.117,196.87 C98.026,191.379 98.266,184.275 99.311,175.991 C103.525,171.102 107.574,166.174 111.367,161.348 C141.548,122.799 169.579,73.239 152.918,68.877 C135.279,64.235 110.464,99.772 97.299,135.054 C93.334,145.683 89.373,160.978 87.127,176.365 C64.221,200.053 34.09,223.125 22.517,210.28 C9.683,196.043 30.62,169.854 56.111,150.52 C57.996,149.085 57.349,140.944 52.858,142.409 C19.798,153.188 8.502,109.435 52.505,57.666 C97.794,4.386 142.164,1.017 137.073,34.005 C136.126,40.126 145.401,36.954 149.899,35.199 C155.241,33.143 155.718,30.791 155.584,28.027 C154.307,-2.998 104.543,-19.364 39.311,40.728 C-17.069,92.661 -4.617,149.716 32.986,155.502 C-10.024,191.304 -8.794,232.055 24.056,231.085 C41.194,230.573 64.468,212.706 85.588,190.937 C84.146,214.166 88.253,234.152 104.477,233.999 C120.844,233.841 131.305,218.492 136.636,207.744 C134.503,245.437 167.123,235.644 174.693,216.68 C176.653,211.77 168.48,210.312 166.634,214.239 L166.634,214.239 Z" id="Fill-1"></path>
            </g>
            <path d="M166.115,138.909 C170.178,138.909 173.483,135.603 173.483,131.515 C173.483,127.433 170.178,124.136 166.115,124.136 C162.022,124.136 158.7,127.433 158.7,131.515 C158.7,135.603 162.022,138.909 166.115,138.909" id="Fill-4"></path>
        </g>
    </g>
</svg>